# xmcd CD database file
#
# Track frame offsets:
#	150
#	20183
#	36691
#	57458
#	77061
#	94009
#	111842
#	128078
#	144124
#	165058
#	179551
#	197847
#
# Disc length: 2874 seconds
#
# Revision: 0
# Processed by: cddbd v1.5.2PL0 Copyright (c) Steve Scherf et al.
# Submitted via: CDex 1.51
#
DISCID=a30b380c
DTITLE=Los Mejores de la Bachata - Los Mejores de la BACHATA 2011
DYEAR=20120
DGENRE=Salsa
TTITLE0=01 Alejate De Mi - Opalo
TTITLE1=02 Dime Que Me Quieres - Nicol Frias
TTITLE2=03 Desesperado - Zacarias Ferreira
TTITLE3=04 Atrevete - Joe Veras
TTITLE4=05 Parece Mentira - Raulin Rodriguez
TTITLE5=06 Escobita Nueva - Yoskar Sarante
TTITLE6=07 Besito A Besitos - Luis Miguel de Amargue
TTITLE7=08 Colgando En Tus Manos - El Gringo de la Bachata
TTITLE8=09 Que Me Puedas Amar - Ronald Nunez
TTITLE9=10 Te Presumo - Daniel Segura
TTITLE10=11 Secreto De Amor - Juan Manuel
TTITLE11=12 Si Lo Amas A El - David Paredes
EXTD=YEAR: 20120
EXTT0=
EXTT1=
EXTT2=
EXTT3=
EXTT4=
EXTT5=
EXTT6=
EXTT7=
EXTT8=
EXTT9=
EXTT10=
EXTT11=
PLAYORDER=
